<svg width="136" height="50" viewBox="0 0 136 50" fill="none" xmlns="http://www.w3.org/2000/svg">
<path d="M6.24 31.776C2.664 31.776 0.6 29.64 0.6 26.256C0.6 22.896 2.784 20.736 6.384 20.736C8.832 20.736 10.584 21.792 10.968 23.88H11.16V20.976H14.52V31.248C14.52 35.448 11.976 37.32 7.68 37.32C3.792 37.32 1.344 35.592 1.344 32.568H4.944C4.944 33.912 5.472 34.32 7.92 34.32C10.224 34.32 10.92 33.84 10.92 31.488V28.776H10.728C10.344 30.552 8.928 31.776 6.24 31.776ZM4.224 26.256C4.224 28.032 5.232 28.68 7.488 28.68C9.792 28.68 10.92 28.032 10.92 26.376V26.112C10.92 24.48 9.768 23.856 7.536 23.856C5.232 23.856 4.224 24.48 4.224 26.256ZM22.8128 33.24C18.8048 33.24 16.0688 31.272 16.0688 27C16.0688 23.16 18.7808 20.736 22.7408 20.736C26.6768 20.736 29.2928 22.8 29.2928 26.568C29.2928 27 29.2448 27.312 29.1968 27.72H19.4048C19.5008 29.568 20.3648 30.36 22.6928 30.36C24.8288 30.36 25.5728 29.808 25.5728 28.776V28.536H29.1728V28.8C29.1728 31.416 26.6288 33.24 22.8128 33.24ZM22.6688 23.544C20.5328 23.544 19.6208 24.264 19.4528 25.824H25.8368C25.7408 24.24 24.7808 23.544 22.6688 23.544ZM39.2914 33H36.3154C33.5074 33 31.8034 31.68 31.8034 28.656V23.952H29.9074V20.976H31.8034V18.648H35.4034V20.976H39.2914V23.952H35.4034V28.248C35.4034 29.448 35.8594 29.76 37.1314 29.76H39.2914V33ZM46.7117 33.24C42.6557 33.24 40.4237 31.656 40.4237 28.872V28.8H44.0237V29.016C44.0237 30.096 44.6957 30.384 46.7357 30.384C48.6557 30.384 49.1117 30.072 49.1117 29.352C49.1117 28.68 48.7517 28.488 47.3357 28.296L43.9517 27.888C41.5517 27.624 40.2077 26.544 40.2077 24.528C40.2077 22.416 42.0077 20.736 46.1357 20.736C50.0717 20.736 52.3037 22.224 52.3037 25.152V25.224H48.7037V25.08C48.7037 24.096 48.2237 23.592 46.0157 23.592C44.2157 23.592 43.7597 23.904 43.7597 24.672C43.7597 25.296 44.0957 25.56 45.6797 25.752L48.2477 26.064C51.4637 26.424 52.6637 27.504 52.6637 29.496C52.6637 31.752 50.4317 33.24 46.7117 33.24ZM57.7163 33H54.1163V16.92H57.7163V24.648H57.9083C58.2923 22.608 59.7083 20.736 62.7803 20.736C66.0203 20.736 67.6043 22.848 67.6043 25.632V33H64.0043V26.712C64.0043 24.696 63.1403 23.976 60.8843 23.976C58.4603 23.976 57.7163 24.96 57.7163 26.976V33ZM75.8289 33.24C71.7249 33.24 68.9649 30.792 68.9649 27C68.9649 23.16 71.7249 20.736 75.8289 20.736C79.9329 20.736 82.6929 23.16 82.6929 27C82.6929 30.792 79.9329 33.24 75.8289 33.24ZM75.8289 30.048C78.2529 30.048 79.1169 29.112 79.1169 27C79.1169 24.888 78.2529 23.904 75.8289 23.904C73.3809 23.904 72.5409 24.888 72.5409 27C72.5409 29.112 73.3809 30.048 75.8289 30.048ZM87.7631 33H84.1631V20.976H87.4991V24.168H87.7151C88.0511 22.224 89.3231 20.736 91.7471 20.736C94.4351 20.736 95.5391 22.584 95.5391 24.936V26.928H91.9391V25.68C91.9391 24.36 91.4111 23.784 89.9471 23.784C88.3391 23.784 87.7631 24.528 87.7631 26.04V33ZM105.315 33H102.339C99.5308 33 97.8268 31.68 97.8268 28.656V23.952H95.9308V20.976H97.8268V18.648H101.427V20.976H105.315V23.952H101.427V28.248C101.427 29.448 101.883 29.76 103.155 29.76H105.315V33ZM110.263 33H106.663V16.92H110.263V33ZM118.532 33.24C114.524 33.24 111.788 31.272 111.788 27C111.788 23.16 114.5 20.736 118.46 20.736C122.396 20.736 125.012 22.8 125.012 26.568C125.012 27 124.964 27.312 124.916 27.72H115.124C115.22 29.568 116.084 30.36 118.412 30.36C120.548 30.36 121.292 29.808 121.292 28.776V28.536H124.892V28.8C124.892 31.416 122.348 33.24 118.532 33.24ZM118.388 23.544C116.252 23.544 115.34 24.264 115.172 25.824H121.556C121.46 24.24 120.5 23.544 118.388 23.544ZM135.01 33H132.034C129.226 33 127.522 31.68 127.522 28.656V23.952H125.626V20.976H127.522V18.648H131.122V20.976H135.01V23.952H131.122V28.248C131.122 29.448 131.578 29.76 132.85 29.76H135.01V33Z" fill="#333333"/>
</svg>
